<?xml version="1.0" encoding="UTF-8" standalone="no"?>
<!DOCTYPE svg PUBLIC "-//W3C//DTD SVG 1.1//EN"
 "http://www.w3.org/Graphics/SVG/1.1/DTD/svg11.dtd">
<!-- Generated by graphviz version 2.38.0 (20140413.2041)
 -->
<!-- Title: %3 Pages: 1 -->
<svg width="520pt" height="355pt"
 viewBox="0.00 0.00 519.85 355.00" xmlns="http://www.w3.org/2000/svg" xmlns:xlink="http://www.w3.org/1999/xlink">
<g id="graph0" class="graph" transform="scale(1 1) rotate(0) translate(4 351)">
<title>%3</title>
<polygon fill="#3f3f3f" stroke="none" points="-4,4 -4,-351 515.848,-351 515.848,4 -4,4"/>
<text text-anchor="middle" x="255.924" y="-9.2" font-family="Times,serif" font-size="16.00" fill="white">Network Map</text>
<!-- SW1 -->
<g id="node1" class="node"><title>SW1</title>
<polygon fill="#006699" stroke="#006699" points="294.348,-99 205.348,-99 205.348,-26 294.348,-26 294.348,-99"/>
<text text-anchor="middle" x="249.848" y="-58.8" font-family="Helvetica,sans-Serif" font-size="14.00" fill="white">SW1</text>
</g>
<!-- R4 -->
<g id="node2" class="node"><title>R4</title>
<polygon fill="#006699" stroke="#006699" points="103.848,-223 27.8479,-223 27.8479,-150 103.848,-150 103.848,-223"/>
<text text-anchor="middle" x="65.8479" y="-182.8" font-family="Helvetica,sans-Serif" font-size="14.00" fill="white">R4</text>
</g>
<!-- SW1&#45;&#45;R4 -->
<g id="edge7" class="edge"><title>SW1&#45;&#45;R4</title>
<path fill="none" stroke="green" stroke-dasharray="5,2" d="M205.206,-65.6245C166.759,-69.907 112.594,-82.2248 80.8479,-117 72.7221,-125.901 68.6378,-138.162 66.6844,-149.853"/>
<text text-anchor="middle" x="130.848" y="-120.8" font-family="Courier,monospace" font-size="14.00" fill="white"> &#160;&#160;&#160;&#160;&#160;&#160;&#160;&#160;&#160;&#160;&#160;</text>
<text text-anchor="middle" x="37.6844" y="-138.653" font-family="Courier,monospace" font-size="14.00" fill="white">Eth 0/0</text>
<text text-anchor="middle" x="176.206" y="-54.4245" font-family="Courier,monospace" font-size="14.00" fill="white">Eth 0/4</text>
</g>
<!-- R2 -->
<g id="node4" class="node"><title>R2</title>
<polygon fill="#006699" stroke="#006699" points="226.848,-223 150.848,-223 150.848,-150 226.848,-150 226.848,-223"/>
<text text-anchor="middle" x="188.848" y="-182.8" font-family="Helvetica,sans-Serif" font-size="14.00" fill="white">R2</text>
</g>
<!-- SW1&#45;&#45;R2 -->
<g id="edge5" class="edge"><title>SW1&#45;&#45;R2</title>
<path fill="none" stroke="green" stroke-dasharray="5,2" d="M205.191,-95.2384C198.991,-101.702 193.502,-109.003 189.848,-117 185.251,-127.061 183.862,-138.852 183.957,-149.788"/>
<text text-anchor="middle" x="239.848" y="-120.8" font-family="Courier,monospace" font-size="14.00" fill="white"> &#160;&#160;&#160;&#160;&#160;&#160;&#160;&#160;&#160;&#160;&#160;</text>
<text text-anchor="middle" x="154.957" y="-138.588" font-family="Courier,monospace" font-size="14.00" fill="white">Eth 0/0</text>
<text text-anchor="middle" x="176.191" y="-84.0384" font-family="Courier,monospace" font-size="14.00" fill="white">Eth 0/2</text>
</g>
<!-- R3 -->
<g id="node6" class="node"><title>R3</title>
<polygon fill="#006699" stroke="#006699" points="349.848,-223 273.848,-223 273.848,-150 349.848,-150 349.848,-223"/>
<text text-anchor="middle" x="311.848" y="-182.8" font-family="Helvetica,sans-Serif" font-size="14.00" fill="white">R3</text>
</g>
<!-- SW1&#45;&#45;R3 -->
<g id="edge6" class="edge"><title>SW1&#45;&#45;R3</title>
<path fill="none" stroke="green" stroke-dasharray="5,2" d="M279.083,-99.2785C283.023,-105.007 286.763,-111.023 289.848,-117 295.118,-127.212 299.441,-138.931 302.818,-149.755"/>
<text text-anchor="middle" x="345.848" y="-120.8" font-family="Courier,monospace" font-size="14.00" fill="white"> &#160;&#160;&#160;&#160;&#160;&#160;&#160;&#160;&#160;&#160;&#160;</text>
<text text-anchor="middle" x="273.818" y="-138.555" font-family="Courier,monospace" font-size="14.00" fill="white">Eth 0/0</text>
<text text-anchor="middle" x="250.083" y="-103.079" font-family="Courier,monospace" font-size="14.00" fill="white">Eth 0/3</text>
</g>
<!-- R1 -->
<g id="node7" class="node"><title>R1</title>
<polygon fill="#006699" stroke="#006699" points="472.848,-223 396.848,-223 396.848,-150 472.848,-150 472.848,-223"/>
<text text-anchor="middle" x="434.848" y="-182.8" font-family="Helvetica,sans-Serif" font-size="14.00" fill="white">R1</text>
</g>
<!-- SW1&#45;&#45;R1 -->
<g id="edge4" class="edge"><title>SW1&#45;&#45;R1</title>
<path fill="none" stroke="green" stroke-dasharray="5,2" d="M294.358,-70.3219C326.815,-77.2779 370.137,-90.9144 399.848,-117 409.783,-125.723 417.269,-137.944 422.713,-149.652"/>
<text text-anchor="middle" x="461.848" y="-120.8" font-family="Courier,monospace" font-size="14.00" fill="white"> &#160;&#160;&#160;&#160;&#160;&#160;&#160;&#160;&#160;&#160;&#160;</text>
<text text-anchor="middle" x="393.713" y="-138.452" font-family="Courier,monospace" font-size="14.00" fill="white">Eth 0/0</text>
<text text-anchor="middle" x="323.358" y="-59.1219" font-family="Courier,monospace" font-size="14.00" fill="white">Eth 0/1</text>
</g>
<!-- R5 -->
<g id="node3" class="node"><title>R5</title>
<polygon fill="#006699" stroke="#006699" points="165.848,-347 89.8479,-347 89.8479,-274 165.848,-274 165.848,-347"/>
<text text-anchor="middle" x="127.848" y="-306.8" font-family="Helvetica,sans-Serif" font-size="14.00" fill="white">R5</text>
</g>
<!-- R4&#45;&#45;R5 -->
<g id="edge3" class="edge"><title>R4&#45;&#45;R5</title>
<path fill="none" stroke="green" stroke-dasharray="5,2" d="M58,-223.272C57.2255,-234.211 58.1218,-245.989 62.8479,-256 68.7131,-268.424 79.0347,-278.937 89.7494,-287.268"/>
<text text-anchor="middle" x="112.848" y="-244.8" font-family="Courier,monospace" font-size="14.00" fill="white"> &#160;&#160;&#160;&#160;&#160;&#160;&#160;&#160;&#160;&#160;&#160;</text>
<text text-anchor="middle" x="60.7494" y="-276.068" font-family="Courier,monospace" font-size="14.00" fill="white">Eth 0/1</text>
<text text-anchor="middle" x="29" y="-227.072" font-family="Courier,monospace" font-size="14.00" fill="white">Eth 0/1</text>
</g>
<!-- R2&#45;&#45;R5 -->
<g id="edge1" class="edge"><title>R2&#45;&#45;R5</title>
<path fill="none" stroke="green" stroke-dasharray="5,2" d="M179.741,-223.206C176.362,-234.029 172.056,-245.756 166.848,-256 163.775,-262.045 160.046,-268.146 156.128,-273.955"/>
<text text-anchor="middle" x="222.848" y="-244.8" font-family="Courier,monospace" font-size="14.00" fill="white"> &#160;&#160;&#160;&#160;&#160;&#160;&#160;&#160;&#160;&#160;&#160;</text>
<text text-anchor="middle" x="127.128" y="-262.755" font-family="Courier,monospace" font-size="14.00" fill="white">Eth 0/0</text>
<text text-anchor="middle" x="150.741" y="-227.006" font-family="Courier,monospace" font-size="14.00" fill="white">Eth 0/1</text>
</g>
<!-- R6 -->
<g id="node5" class="node"><title>R6</title>
<polygon fill="#006699" stroke="#006699" points="349.848,-347 273.848,-347 273.848,-274 349.848,-274 349.848,-347"/>
<text text-anchor="middle" x="311.848" y="-306.8" font-family="Helvetica,sans-Serif" font-size="14.00" fill="white">R6</text>
</g>
<!-- R2&#45;&#45;R6 -->
<g id="edge2" class="edge"><title>R2&#45;&#45;R6</title>
<path fill="none" stroke="green" stroke-dasharray="5,2" d="M227.235,-204.835C244.009,-213.822 262.977,-226.065 276.848,-241 285.572,-250.394 292.675,-262.376 298.146,-273.683"/>
<text text-anchor="middle" x="337.848" y="-244.8" font-family="Courier,monospace" font-size="14.00" fill="white"> &#160;&#160;&#160;&#160;&#160;&#160;&#160;&#160;&#160;&#160;&#160;</text>
<text text-anchor="middle" x="269.146" y="-262.483" font-family="Courier,monospace" font-size="14.00" fill="white">Eth 0/1</text>
<text text-anchor="middle" x="256.235" y="-193.635" font-family="Courier,monospace" font-size="14.00" fill="white">Eth 0/2</text>
</g>
</g>
</svg>
